<?xml version="1.0" encoding="UTF-8" standalone="no"?>
<svg
   xmlns:dc="http://purl.org/dc/elements/1.1/"
   xmlns:cc="http://creativecommons.org/ns#"
   xmlns:rdf="http://www.w3.org/1999/02/22-rdf-syntax-ns#"
   xmlns:svg="http://www.w3.org/2000/svg"
   xmlns="http://www.w3.org/2000/svg"
   xmlns:sodipodi="http://sodipodi.sourceforge.net/DTD/sodipodi-0.dtd"
   xmlns:inkscape="http://www.inkscape.org/namespaces/inkscape"
   width="210mm"
   height="297mm"
   viewBox="0 0 210 297"
   version="1.1"
   id="svg8"
   inkscape:version="1.0.2 (e86c870879, 2021-01-15, custom)"
   sodipodi:docname="global_view_simonniere_etang.svg">
  <defs
     id="defs2" />
  <sodipodi:namedview
     id="base"
     pagecolor="#ffffff"
     bordercolor="#666666"
     borderopacity="1.0"
     inkscape:pageopacity="0.0"
     inkscape:pageshadow="2"
     inkscape:zoom="0.68186937"
     inkscape:cx="748.96682"
     inkscape:cy="620.85346"
     inkscape:document-units="mm"
     inkscape:current-layer="layer1"
     inkscape:document-rotation="0"
     showgrid="false"
     inkscape:window-width="1920"
     inkscape:window-height="1017"
     inkscape:window-x="-8"
     inkscape:window-y="1072"
     inkscape:window-maximized="1" />
  <metadata
     id="metadata5">
    <rdf:RDF>
      <cc:Work
         rdf:about="">
        <dc:format>image/svg+xml</dc:format>
        <dc:type
           rdf:resource="http://purl.org/dc/dcmitype/StillImage" />
        <dc:title></dc:title>
      </cc:Work>
    </rdf:RDF>
  </metadata>
  <g
     inkscape:label="Layer 1"
     inkscape:groupmode="layer"
     id="layer1">
    <path
       style="display:inline;fill:#000000;stroke-width:0.264583"
       d="m 145.72666,90.755634 c -7.05441,-5.20809 -23.02949,-16.99794 -35.50019,-26.19966 l -22.673991,-16.73041 0.78652,-1.64774 c 0.43258,-0.90626 0.88777,-1.62289 1.01153,-1.59252 0.23898,0.0587 70.307371,52.02952 70.865781,52.5623 0.25926,0.24737 0.13253,0.60407 -0.60234,1.69528 -0.51188,0.76009 -0.96004,1.381986 -0.99591,1.381986 -0.0359,0 -5.837,-4.261156 -12.8914,-9.469236 z"
       id="path_chemin_descendant"
       inkscape:label="chemin_descendant" />
    <path
       style="display:inline;fill:#000000;stroke-width:0.264583"
       d="m 153.82243,205.18409 c -3.02525,-1.5839 -4.31023,-2.94203 -5.93195,-6.26963 -0.95584,-1.96128 -0.96709,-2.02287 -0.9664,-5.29167 5.3e-4,-2.47336 0.11145,-3.57763 0.43993,-4.37941 l 0.43923,-1.07213 -12.43029,-6.20392 c -6.83665,-3.41215 -12.53614,-6.329 -12.66552,-6.48189 -0.14733,-0.17409 4.02132,-8.52972 11.15411,-22.3573 6.26415,-12.14362 15.07516,-29.44204 19.58002,-38.44094 6.53502,-13.05435 8.27535,-16.329136 8.60967,-16.200846 1.33331,0.51164 20.74099,11.740186 21.47398,12.424026 1.06582,0.99435 1.77008,2.30603 2.00896,3.74164 0.17266,1.0377 -1.70733,24.36845 -2.24869,27.90619 -0.34387,2.24719 -1.07801,4.4965 -2.63385,8.06979 -0.69697,1.60073 -2.33905,5.47026 -3.64907,8.59896 -3.96913,9.47944 -20.13312,46.91297 -20.3508,47.12959 -0.11186,0.11131 -1.38505,-0.41629 -2.82933,-1.17246 z"
       id="path_etang"
       inkscape:label="etang" />
    <path
       style="display:inline;fill:#000000;stroke-width:0.264583"
       d="m 65.981469,190.85724 c -20.50113,-11.12102 -37.42911,-20.37632 -37.61775,-20.56734 -0.28173,-0.28531 0.13877,-0.98904 2.35522,-3.9416 5.63875,-7.51143 5.93782,-7.78377 12.68765,-11.55379 1.2741,-0.71163 3.09107,-1.94021 4.03771,-2.73019 1.58074,-1.31914 1.88025,-1.74931 3.67121,-5.27278 1.07253,-2.11005 5.70422,-11.93271 10.29265,-21.82813 4.58843,-9.89541 10.6883,-22.87322 13.55527,-28.839576 2.86696,-5.96636 5.49301,-11.70368 5.83567,-12.74962 0.34265,-1.04593 0.92905,-3.8439 1.30311,-6.2177 0.37407,-2.37381 0.85998,-5.44711 1.07981,-6.82956 0.21983,-1.38244 0.8038,-4.29948 1.29771,-6.48229 0.4939,-2.18281 1.14285,-5.25451 1.44209,-6.82598 0.62506,-3.28246 0.84783,-3.77318 2.58216,-5.68806 l 1.2694,-1.40155 34.131251,25.1642 c 18.77219,13.84031 34.40619,25.469356 34.74223,25.842316 0.36181,0.40158 0.5458,0.8535 0.45117,1.10818 -0.32736,0.881 -55.2638,108.39296 -55.54697,108.70679 -0.22835,0.25306 -8.697811,-4.23156 -37.569591,-19.89332 z"
       id="path_champs"
       inkscape:label="champs" />
    <path
       style="display:inline;fill:#000000;stroke-width:0.264583"
       d="m 119.91945,220.58134 c -7.99461,-4.37181 -14.80199,-8.12002 -15.12752,-8.32936 -0.59055,-0.37978 -0.5721,-0.4202 8.29491,-18.17001 4.88772,-9.78416 8.91629,-17.82099 8.95238,-17.85963 0.0907,-0.0971 24.75187,12.0501 24.75187,12.19185 0,0.0628 -0.22672,0.6354 -0.50383,1.27236 -0.2771,0.63697 -0.70765,2.08929 -0.95677,3.2274 -0.77175,3.52574 0.053,6.31428 2.81755,9.52676 1.363,1.58382 2.10914,2.16368 4.511,3.50572 1.58283,0.88441 3.00195,1.73209 3.15359,1.88373 0.19122,0.19123 -0.61947,2.06465 -2.64566,6.11382 l -2.92136,5.83812 -2.58716,1.82803 c -2.98926,2.11215 -9.07903,5.37984 -11.15399,5.98508 -0.7827,0.22831 -1.564,0.53205 -1.73623,0.67498 -0.21887,0.18165 -4.68905,-2.13306 -14.84878,-7.68885 z"
       id="path_peupliers"
       inkscape:label="peupliers" />
    <path
       style="display:inline;fill:#000000;stroke-width:0.264583"
       d="m 68.307739,106.50873 c 0.5398,-1.20055 2.35846,-4.77492 4.04145,-7.943046 3.54921,-6.68118 6.50825,-13.41729 7.25768,-16.52178 0.2886,-1.19553 1.00065,-5.30318 1.58234,-9.12813 0.93544,-6.15106 2.43843,-12.78294 4.37539,-19.30622 0.0728,-0.24504 0.71532,-1.24525 1.42791,-2.22269 l 1.29563,-1.77717 -0.66038,-0.51945 c -0.3632,-0.2857 -0.69645,-0.47611 -0.74054,-0.42314 -0.0441,0.053 -0.98762,1.76319 -2.09674,3.80048 -3.031,5.56754 -4.60388,10.65867 -5.47671,17.72708 -0.98484,7.97557 -1.51203,10.61555 -2.80027,14.02292 -1.20125,3.17728 -3.60405,7.9799 -5.36113,10.71563 -0.51406,0.80036 -2.09878,4.01505 -3.52162,7.143746 l -2.58697,5.68854 0.98772,0.45608 c 0.54324,0.25084 1.0568,0.4592 1.14125,0.46302 0.0844,0.004 0.59519,-0.97533 1.13499,-2.17587 z"
       id="path_haie_chemin_terre_2"
       inkscape:label="haie_chemin_terre_2" />
    <path
       style="display:inline;fill:#000000;stroke-width:0.264583"
       d="m 28.176509,167.56133 c 0.73407,-0.87312 2.13807,-2.71859 3.12001,-4.10104 2.43431,-3.42718 4.93228,-5.94309 6.88311,-6.93253 3.41252,-1.7308 7.75293,-4.50627 8.91767,-5.7024 1.48828,-1.52838 3.40766,-5.15264 8.16151,-15.4109 3.97421,-8.5759 11.62811,-25.63765 11.62811,-25.9209 0,-0.21616 -2.06972,-0.94339 -2.21607,-0.77866 -0.0532,0.0599 -3.63888,7.99502 -7.96813,17.63358 -7.44534,16.57615 -7.998,17.70911 -10.21116,20.9327 l -2.3398,3.40806 -4.17669,2.35063 c -3.62439,2.0398 -4.47067,2.64801 -6.39986,4.59959 -2.46958,2.49823 -9.02162,10.0152 -9.02162,10.35026 0,0.33416 1.94516,1.57278 2.12653,1.35411 0.089,-0.10725 0.76233,-0.90937 1.49639,-1.7825 z"
       id="path_haie_chemin_terre_1"
       inkscape:label="haie_chemin_terre_1" />
    <path
       style="display:inline;fill:#000000;stroke-width:0.264583"
       d="m 133.0542,230.54628 c 0.34327,-0.64709 0.56818,-1.22505 0.49978,-1.28437 -0.21287,-0.18462 -109.442551,-59.43484 -109.878261,-59.60204 -0.29258,-0.11227 -0.57535,0.16232 -0.9761,0.94786 -0.31031,0.60826 -0.49241,1.17771 -0.40468,1.26544 0.32688,0.32688 109.558861,59.83938 109.841161,59.8444 0.16167,0.003 0.57482,-0.52421 0.9181,-1.17129 z"
       id="path_haie_moreau"
       inkscape:label="haie_moreau" />
  </g>
</svg>
